<svg xmlns="http://www.w3.org/2000/svg" width="1200" height="630" viewBox="0 0 1200 630">
  <defs><linearGradient id="g" x1="120" y1="70" x2="1080" y2="560" gradientUnits="userSpaceOnUse"><stop stop-color="#2864ff"/><stop offset="1" stop-color="#38d6a5"/></linearGradient><radialGradient id="o"><stop stop-color="#2864ff" stop-opacity=".35"/><stop offset="1" stop-color="#071426" stop-opacity="0"/></radialGradient></defs>
  <rect width="1200" height="630" fill="#071426"/><circle cx="190" cy="110" r="430" fill="url(#o)"/><circle cx="1090" cy="610" r="360" fill="url(#o)"/>
  <g opacity=".08" stroke="white"><path d="M0 90h1200M0 180h1200M0 270h1200M0 360h1200M0 450h1200M0 540h1200"/><path d="M100 0v630M200 0v630M300 0v630M400 0v630M500 0v630M600 0v630M700 0v630M800 0v630M900 0v630M1000 0v630M1100 0v630"/></g>
  <rect x="86" y="78" width="58" height="58" rx="17" fill="url(#g)"/><rect x="105" y="97" width="20" height="20" rx="4" transform="rotate(45 115 107)" fill="none" stroke="white" stroke-width="4"/>
  <text x="168" y="116" fill="white" font-family="Arial,sans-serif" font-size="28" font-weight="700">Silatech Growth Partners</text>
  <text x="86" y="254" fill="white" font-family="Arial,sans-serif" font-size="64" font-weight="700">Smarter systems for</text><text x="86" y="328" fill="url(#g)" font-family="Arial,sans-serif" font-size="64" font-weight="700">growing businesses.</text>
  <text x="86" y="406" fill="#9db0c9" font-family="Arial,sans-serif" font-size="25">WhatsApp workflows · CRM · Dashboards · AI-enabled operations</text>
  <rect x="86" y="480" width="315" height="58" rx="29" fill="#2864ff"/><text x="125" y="517" fill="white" font-family="Arial,sans-serif" font-size="21" font-weight="700">kevsilaservices.netlify.app</text>
</svg>
